<svg width="80" height="24" viewBox="0 0 80 24" fill="none" xmlns="http://www.w3.org/2000/svg">
  <path d="M28.4 5.6H31.6L27.2 18.4H24L19.6 5.6H22.8L25.6 14.8L28.4 5.6Z" fill="black"/>
  <path d="M32.8 5.6H35.6V18.4H32.8V5.6Z" fill="black"/>
  <path d="M37.6 5.6H40.4V15.6H46V18.4H37.6V5.6Z" fill="black"/>
  <path d="M47.2 5.6H50V18.4H47.2V5.6Z" fill="black"/>
  <path d="M51.6 5.6H54.4V15.6H60V18.4H51.6V5.6Z" fill="black"/>
  <path d="M61.2 5.6H68.8V8.4H64V10.8H68V13.6H64V15.6H68.8V18.4H61.2V5.6Z" fill="black"/>
  <path d="M16 12C16 14.2091 14.2091 16 12 16C9.79086 16 8 14.2091 8 12C8 9.79086 9.79086 8 12 8C14.2091 8 16 9.79086 16 12Z" fill="#4ADE80"/>
</svg>

